<?xml version="1.0" encoding="UTF-8"?>
<svg version="1.1" xmlns="http://www.w3.org/2000/svg" width="180" height="180">
<path d="M0 0 C1.46983337 -0.0099852 1.46983337 -0.0099852 2.96936035 -0.02017212 C5.03700895 -0.03027779 7.10469002 -0.03498979 9.17236328 -0.03466797 C12.33290216 -0.03904747 15.49205115 -0.07540693 18.65234375 -0.11328125 C20.66405774 -0.11914858 22.67577834 -0.12311853 24.6875 -0.125 C25.63032837 -0.13937103 26.57315674 -0.15374207 27.54455566 -0.16854858 C31.7942264 -0.13898187 34.20713298 -0.04560776 37.91601562 2.17724609 C40.99619915 5.6264587 41.12035486 8.80319743 41.0703125 13.33203125 C40.74334178 16.22403086 39.62512465 18.07496198 37.84375 20.3359375 C34.53327652 21.99117424 30.82974157 21.53657997 27.1875 21.58203125 C25.42577607 21.61495864 23.66405745 21.64817047 21.90234375 21.68164062 C19.11738606 21.72914786 16.33245154 21.77359631 13.54736328 21.81274414 C10.86468352 21.85234176 8.18244106 21.90390441 5.5 21.95703125 C4.24527893 21.96965248 4.24527893 21.96965248 2.96520996 21.98252869 C-1.57083735 21.88666348 -1.57083735 21.88666348 -5.15625 24.3359375 C-5.35514816 27.3382912 -5.42888848 30.24843848 -5.41503906 33.25195312 C-5.4185437 34.1756218 -5.42204834 35.09929047 -5.42565918 36.0509491 C-5.43448676 39.1147709 -5.42862371 42.1783632 -5.421875 45.2421875 C-5.42322135 47.36446172 -5.42516164 49.48673563 -5.42767334 51.60900879 C-5.430626 56.06114635 -5.4263224 60.51320377 -5.41699219 64.96533203 C-5.40559761 70.68225737 -5.41215632 76.39899495 -5.42413712 82.11591339 C-5.43135188 86.49954655 -5.42906955 90.88313493 -5.42388153 95.26676941 C-5.42254397 97.37517824 -5.42419644 99.4835911 -5.42884064 101.59199524 C-5.43389956 104.53474756 -5.42620454 107.47719254 -5.41503906 110.41992188 C-5.41908752 111.29790939 -5.42313599 112.17589691 -5.42730713 113.08049011 C-5.60865301 117.68718729 -5.60865301 117.68718729 -3.15625 121.3359375 C-0.1484227 121.52957876 2.76702575 121.59807945 5.77563477 121.57885742 C7.16354721 121.58170494 7.16354721 121.58170494 8.57949829 121.58460999 C11.64813622 121.58832483 14.71653924 121.57760423 17.78515625 121.56640625 C19.90982536 121.56521483 22.034495 121.56476121 24.15916443 121.5650177 C28.6155018 121.56345165 33.07175897 121.55515216 37.52807617 121.54174805 C43.25402516 121.52474774 48.97988601 121.52093392 54.70585728 121.52169323 C59.0937332 121.52142195 63.48158968 121.51594764 67.86945915 121.50869179 C69.98148387 121.50549907 72.0935108 121.50353631 74.2055378 121.50279808 C77.15081706 121.50064146 80.09600085 121.49191231 83.04125977 121.48120117 C84.36363396 121.48188095 84.36363396 121.48188095 85.71272278 121.48257446 C89.59012857 121.84470166 89.59012857 121.84470166 92.84375 120.3359375 C92.95458807 117.51176056 93.00539509 114.707924 93.01953125 111.8828125 C93.04273712 110.1314985 93.06685477 108.38019638 93.09179688 106.62890625 C93.12687492 103.85945787 93.15622812 101.09044395 93.16967773 98.32080078 C93.18517738 95.65343054 93.22540908 92.98734297 93.26953125 90.3203125 C93.26762283 89.49617859 93.26571442 88.67204468 93.26374817 87.82293701 C93.34887059 83.81118887 93.54715938 81.80141842 95.75463867 78.33691406 C99.4295305 74.81705741 102.44454053 75.00426083 107.359375 75.046875 C110.84585977 75.45253518 112.54418595 76.73965551 114.84375 79.3359375 C115.73698157 82.01563221 115.98253865 83.61991961 116.02075195 86.37329102 C116.04000481 87.58584312 116.04000481 87.58584312 116.05964661 88.82289124 C116.06703354 89.69473557 116.07442047 90.5665799 116.08203125 91.46484375 C116.090103 92.36911606 116.09817474 93.27338837 116.10649109 94.20506287 C116.12032545 96.1224476 116.13105051 98.03985689 116.13891602 99.95727539 C116.15039858 101.90559167 116.17079088 103.85387743 116.20043945 105.80200195 C116.54264919 128.29034349 116.54264919 128.29034349 109.94921875 136.7734375 C109.31628906 137.2890625 108.68335938 137.8046875 108.03125 138.3359375 C107.40605469 138.8721875 106.78085938 139.4084375 106.13671875 139.9609375 C99.90525334 143.69769359 93.42590361 143.63311846 86.36962891 143.62646484 C85.3394313 143.63318207 84.3092337 143.63989929 83.24781799 143.64682007 C79.85526659 143.66575815 76.46291342 143.66972203 73.0703125 143.671875 C70.70291056 143.67830528 68.33550941 143.68503381 65.96810913 143.69204712 C61.0102962 143.70400902 56.0525529 143.707729 51.09472656 143.70654297 C44.75411639 143.70633972 38.41395413 143.73365336 32.07345009 143.76808739 C27.18512943 143.79036531 22.29691648 143.79438024 17.40855026 143.79332352 C15.07146027 143.79567767 12.73436722 143.80449067 10.39732742 143.81998825 C7.12345565 143.83966773 3.85054874 143.83380203 0.57666016 143.82177734 C-0.38051407 143.83301636 -1.33768829 143.84425537 -2.3238678 143.85583496 C-9.68462584 143.78742009 -15.7514392 142.10234627 -21.53125 137.40625 C-22.0675 136.76429688 -22.60375 136.12234375 -23.15625 135.4609375 C-23.713125 134.82414063 -24.27 134.18734375 -24.84375 133.53125 C-28.09499805 128.09315059 -27.30439334 121.10017354 -27.30151367 114.95947266 C-27.30487228 113.92781479 -27.3082309 112.89615692 -27.31169128 111.83323669 C-27.32117267 108.43047881 -27.32314294 105.02777027 -27.32421875 101.625 C-27.3274331 99.2537738 -27.33079731 96.8825478 -27.33430481 94.51132202 C-27.34028891 89.54335063 -27.34214543 84.57539662 -27.34155273 79.60742188 C-27.34145111 73.25000799 -27.35510677 66.89270579 -27.37232494 60.53531837 C-27.38345734 55.63847341 -27.38547156 50.74165536 -27.38494301 45.84479904 C-27.38612112 43.50131215 -27.39053338 41.15782452 -27.39827538 38.81435013 C-27.40810086 35.53321817 -27.40518708 32.25232746 -27.39916992 28.97119141 C-27.40478943 28.00885086 -27.41040894 27.04651031 -27.41619873 26.05500793 C-27.35454414 12.78713274 -27.35454414 12.78713274 -22.94921875 7.875 C-22.08941406 7.24335938 -21.22960937 6.61171875 -20.34375 5.9609375 C-19.49167969 5.31382813 -18.63960937 4.66671875 -17.76171875 4 C-11.83053736 0.21186916 -6.8819396 0.01624555 0 0 Z " fill="#FE6900" transform="translate(41.15625,22.6640625)"/>
<path d="M0 0 C0.92776245 -0.00960754 1.8555249 -0.01921509 2.81140137 -0.02911377 C3.80627563 -0.03336365 4.8011499 -0.03761353 5.82617188 -0.04199219 C7.36827332 -0.0505423 7.36827332 -0.0505423 8.94152832 -0.05926514 C11.11351495 -0.06870282 13.28551582 -0.07524422 15.45751953 -0.07910156 C18.78247873 -0.08883078 22.10682582 -0.11987568 25.43164062 -0.15136719 C27.54231404 -0.15789521 29.65299187 -0.16314647 31.76367188 -0.16699219 C33.25598328 -0.18551239 33.25598328 -0.18551239 34.77844238 -0.20440674 C35.70620483 -0.20140564 36.63396729 -0.19840454 37.58984375 -0.1953125 C38.40384644 -0.19895813 39.21784912 -0.20260376 40.05651855 -0.20635986 C42.87323422 0.25607797 44.22950917 1.21626311 46.29492188 3.16113281 C47.2321893 5.97293509 47.43105264 7.73235456 47.45605469 10.64501953 C47.46566223 11.54960907 47.47526978 12.45419861 47.48516846 13.38619995 C47.48941833 14.36122467 47.49366821 15.33624939 47.49804688 16.34082031 C47.50374695 17.34573517 47.50944702 18.35065002 47.51531982 19.38601685 C47.52476765 21.51270495 47.53130294 23.63940768 47.53515625 25.76611328 C47.54486335 29.01653614 47.57588973 32.26632708 47.60742188 35.51660156 C47.61395193 37.58300406 47.61920239 39.64941108 47.62304688 41.71582031 C47.63539368 42.68679657 47.64774048 43.65777283 47.66046143 44.65817261 C47.64406731 49.63411826 47.59368444 53.14591072 44.29492188 57.16113281 C41.39598241 59.41586351 38.07807866 59.76061062 34.43945312 59.67285156 C30.11362025 58.64064007 27.35538957 55.20943165 24.29492188 52.16113281 C22.97170488 51.0036318 21.63903652 49.85679989 20.29492188 48.72363281 C19.30492187 47.87800781 18.31492187 47.03238281 17.29492188 46.16113281 C16.57046875 46.969375 15.84601563 47.77761719 15.09960938 48.61035156 C14.12325863 49.68997018 13.14668411 50.76938646 12.16992188 51.84863281 C11.69554687 52.37908203 11.22117188 52.90953125 10.73242188 53.45605469 C8.32907918 56.10297941 5.91264951 58.55319849 3.13867188 60.81347656 C0.74779183 62.78726627 -1.13066055 64.65131232 -3.08007812 67.03613281 C-5.46132222 69.83697939 -7.89809399 72.28765974 -10.70507812 74.66113281 C-13.46777654 76.9988007 -15.86741024 79.3984344 -18.20507812 82.16113281 C-21.1770424 85.6715952 -24.39294004 88.65831255 -27.90820312 91.61816406 C-29.72596587 93.09494507 -29.72596587 93.09494507 -31.10351562 94.82519531 C-34.03159197 97.26763949 -37.37871796 96.74685666 -41.02929688 96.62597656 C-43.70507812 96.16113281 -43.70507812 96.16113281 -46.89257812 93.78613281 C-49.56576628 89.70344545 -49.63233407 84.84377534 -48.70507812 80.16113281 C-47.29882812 77.85644531 -47.29882812 77.85644531 -45.70507812 76.16113281 C-45.04507813 76.16113281 -44.38507813 76.16113281 -43.70507812 76.16113281 C-43.48851563 75.61972656 -43.27195312 75.07832031 -43.04882812 74.52050781 C-41.24007816 71.34467938 -38.78784013 68.953852 -36.20507812 66.41113281 C-35.70621094 65.90453125 -35.20734375 65.39792969 -34.69335938 64.87597656 C-30.95848951 61.16113281 -30.95848951 61.16113281 -28.70507812 61.16113281 C-28.48851563 60.61972656 -28.27195312 60.07832031 -28.04882812 59.52050781 C-26.24007816 56.34467938 -23.78784013 53.953852 -21.20507812 51.41113281 C-20.70621094 50.90453125 -20.20734375 50.39792969 -19.69335938 49.87597656 C-15.95848951 46.16113281 -15.95848951 46.16113281 -13.70507812 46.16113281 C-13.48851562 45.61972656 -13.27195313 45.07832031 -13.04882812 44.52050781 C-11.24007816 41.34467938 -8.78784013 38.953852 -6.20507812 36.41113281 C-5.70621094 35.90453125 -5.20734375 35.39792969 -4.69335938 34.87597656 C-0.95848951 31.16113281 -0.95848951 31.16113281 1.29492188 31.16113281 C-0.81107362 27.32278618 -3.17597835 24.49930833 -6.33007812 21.47363281 C-11.59217849 16.40737114 -11.59217849 16.40737114 -11.90820312 12.91894531 C-11.92367187 12.05011719 -11.93914062 11.18128906 -11.95507812 10.28613281 C-11.98085937 9.42246094 -12.00664063 8.55878906 -12.03320312 7.66894531 C-11.63498997 4.62545903 -10.86107797 3.32684437 -8.70507812 1.16113281 C-5.77948519 0.19554739 -3.06709713 0.02572737 0 0 Z " fill="#FE6A00" transform="translate(118.705078125,13.8388671875)"/>
</svg>
